<svg xmlns="http://www.w3.org/2000/svg" viewBox="0 0 8.7 8.69" fill="currentColor" id="svg-img-dot"> <path d="M.82,6A4.06,4.06,0,0,1,1,4.85a4.15,4.15,0,0,1,.43-1,4.81,4.81,0,0,1,.68-.88A4.49,4.49,0,0,1,3,2.25a4.58,4.58,0,0,1,1-.44,4.37,4.37,0,0,1,1.15-.15,4.45,4.45,0,0,1,1.16.15,4.78,4.78,0,0,1,1,.44,4.81,4.81,0,0,1,.88.68,4.81,4.81,0,0,1,.68.88,4.17,4.17,0,0,1,.44,1A4.45,4.45,0,0,1,9.52,6a4.37,4.37,0,0,1-.16,1.15,4.17,4.17,0,0,1-.44,1,4.49,4.49,0,0,1-.68.88,4.81,4.81,0,0,1-.88.68,4.75,4.75,0,0,1-1,.43,4.06,4.06,0,0,1-1.16.16A4.06,4.06,0,0,1,4,10.19a4.67,4.67,0,0,1-1-.43A4.37,4.37,0,0,1,1.41,8.2a4.15,4.15,0,0,1-.43-1A4,4,0,0,1,.82,6Z" transform="translate(-0.84 -1.68)"></path> </svg>