<svg xmlns="http://www.w3.org/2000/svg" viewBox="0 0 8.98 7.68" fill="currentColor" id="svg-img-heart"> <path d="M5,3.64a3,3,0,0,1,.38-.42,3.25,3.25,0,0,1,.47-.36,2.61,2.61,0,0,1,.54-.24A1.85,1.85,0,0,1,7,2.53a2.48,2.48,0,0,1,1,.19,2.52,2.52,0,0,1,.79.54,2.78,2.78,0,0,1,.55.8,2.48,2.48,0,0,1,.19,1,2.3,2.3,0,0,1-.05.48,3.11,3.11,0,0,1-.22.65A6.28,6.28,0,0,1,8.72,7a6.93,6.93,0,0,1-.8.94A12.92,12.92,0,0,1,6.69,9,19.53,19.53,0,0,1,5,10.2,20.39,20.39,0,0,1,3.22,9,12.87,12.87,0,0,1,2,7.92,8.4,8.4,0,0,1,1.2,7,4.42,4.42,0,0,1,.75,6.2a2.86,2.86,0,0,1-.21-.65A3.25,3.25,0,0,1,.5,5a2.32,2.32,0,0,1,.2-1A2.53,2.53,0,0,1,2,2.72a2.53,2.53,0,0,1,1-.19,1.84,1.84,0,0,1,.57.09,2.32,2.32,0,0,1,.53.24,2.79,2.79,0,0,1,.47.36A3.88,3.88,0,0,1,5,3.64Z" transform="translate(-0.5 -2.53)"></path> </svg>